<svg width="14" height="16" viewBox="0 0 14 16" fill="none" xmlns="http://www.w3.org/2000/svg">
<mask id="mask0_878_2248" style="mask-type:alpha" maskUnits="userSpaceOnUse" x="0" y="0" width="14" height="16">
<path d="M7.82416 0.235475C7.2855 0.0815712 6.7145 0.0815712 6.17584 0.235475L0.725279 1.79278C0.295977 1.91544 0 2.30782 0 2.7543V7.72482C0 10.925 1.90718 13.8174 4.84865 15.078L6.60608 15.8312C6.85763 15.939 7.14237 15.939 7.39392 15.8312L9.15135 15.078C12.0928 13.8174 14 10.925 14 7.72482V2.7543C14 2.30782 13.704 1.91544 13.2747 1.79278L7.82416 0.235475Z" fill="#C4C4C4"/>
</mask>
<g mask="url(#mask0_878_2248)">
<rect x="7" y="-3" width="9" height="20" fill="#5588EE"/>
<rect x="-2" y="-3" width="9" height="20" fill="#99BBFF"/>
</g>
</svg>
